<svg xmlns="http://www.w3.org/2000/svg" width="256" height="256"><path fill-opacity=".016" d="M0 128.004v128.004l128.25-.254 128.25-.254.254-127.75L257.008 0H0v128.004m.485.496c0 70.4.119 99.053.265 63.672.146-35.38.146-92.98 0-128C.604 29.153.485 58.1.485 128.5" fill="#2b957a" fill-rule="evenodd"/><path fill-opacity=".215" d="M96 19.888 65.5 37.609l-.282 34.945-.281 34.946-29.719 17.136L5.5 141.771l-.236 36.865-.237 36.864 31.45 18.135 31.45 18.136 23.201-13.388c12.761-7.363 23.361-13.228 23.556-13.033.338.339-2.034 18.592-3.301 25.4l-.606 3.25H143.888l-1.931-4.363c-2.193-4.958-7.244-25.1-6.77-26.994.192-.766 10.465 4.618 26.596 13.939l26.283 15.187 31.46-18.134 31.46-18.135-.243-36.864-.243-36.865-29.718-17.135-29.719-17.136-.281-34.945-.282-34.946-30.808-17.804c-16.945-9.793-31.345-17.767-32-17.721-.656.046-14.917 8.058-31.692 17.804" fill="#2b957a" fill-rule="evenodd"/><path fill-opacity=".563" d="M96.25 20.174 65 38.25v69.559l-30.012 17.314-30.012 17.314.262 36.409.262 36.409 30.886 17.873C53.373 242.957 67.567 251 67.928 251c.36 0 11.099-6.03 23.864-13.401L115 224.198l-.05 3.151c-.028 1.733-.829 8.438-1.781 14.901L111.438 254h16.404c13.574 0 16.212-.23 15.294-1.336-.61-.735-1.825-3.323-2.7-5.75-1.979-5.49-6.527-25.157-5.951-25.733.234-.233 11.807 6.128 25.72 14.136 13.912 8.008 25.996 14.827 26.852 15.154.959.367 13.445-6.284 32.5-17.31l30.943-17.906.262-36.409.262-36.409-30.012-17.314L191 107.809v-69.56l-31.448-18.125c-17.297-9.968-31.584-18.102-31.75-18.076-.166.027-14.364 8.183-31.552 18.126" fill="#2b957a" fill-rule="evenodd"/><path fill-opacity=".826" d="M98.365 19.346c-15.474 8.95-29.306 17.041-30.737 17.978l-2.602 1.705-.263 34.693-.263 34.692L35 125.466 5.5 142.519l-.262 36.042-.263 36.043 31.52 18.219 31.519 18.22 23.536-13.646c12.944-7.504 23.724-13.456 23.955-13.226.23.231-.464 6.686-1.543 14.346-1.079 7.659-1.962 14.276-1.962 14.704 0 .429 6.975.779 15.5.779s15.5-.168 15.5-.373-.894-2.394-1.986-4.863c-2.289-5.174-7.292-25.18-6.827-27.297.217-.989 8.476 3.305 27.049 14.066l26.736 15.489 31.526-18.179 31.527-18.179-.263-36.072-.262-36.073-29.5-17.053-29.5-17.052-.263-34.701-.263-34.702-3.737-2.395c-9.788-6.275-58.086-33.612-59.328-33.58-.775.02-14.07 7.36-29.544 16.31m.898 5.895L71.026 41.5l-.013 33.043L71 107.585l27.684 15.958C113.91 132.319 127.102 139.5 128 139.5c.898 0 14.09-7.181 29.316-15.957L185 107.585l-.015-33.042-.014-33.043-27.236-15.695C142.756 17.172 129.825 9.856 129 9.546c-.872-.328-13.313 6.238-29.737 15.695M39.289 129.269 11.077 145.5l-.038 33.12L11 211.741l27.96 16.129C54.338 236.742 67.394 244 67.974 244c.581 0 13.649-7.268 29.041-16.15L125 211.7l-.038-33.1-.037-33.1-28.327-16.25c-15.579-8.937-28.5-16.242-28.712-16.231-.212.01-13.081 7.323-28.597 16.25m119.999.008L131.076 145.5l-.038 33.1-.038 33.1 27.985 16.15c15.392 8.882 28.46 16.15 29.041 16.15.58 0 13.636-7.258 29.014-16.13L245 211.741l-.03-33.121-.029-33.12-28.314-16.25c-15.573-8.937-28.497-16.238-28.721-16.223-.223.014-13.101 7.327-28.618 16.25" fill="#2b957a" fill-rule="evenodd"/></svg>