<svg xmlns="http://www.w3.org/2000/svg" width="256" height="256"><path fill-opacity=".016" d="M0 128.004v128.004l128.25-.254 128.25-.254.254-127.75L257.008 0H0v128.004m.485.496c0 70.4.119 99.053.265 63.672.146-35.38.146-92.98 0-128C.604 29.153.485 58.1.485 128.5" fill="#2b957a" fill-rule="evenodd"/><path fill-opacity=".315" d="M102.25 41.275 78 55.381l-.017 27.559-.016 27.56-23.734 13.635L30.5 137.77l-.265 28.921-.265 28.92 25.117 14.445c13.814 7.944 25.428 14.362 25.809 14.262.381-.099 8.548-4.72 18.149-10.267 20.083-11.605 19.064-11.805 16.676 3.271-.757 4.779-1.154 8.912-.882 9.184.551.55 26.161.695 26.161.148 0-.191-.685-1.72-1.522-3.398-1.914-3.835-5.732-18.77-5.3-20.731.231-1.053 6.093 1.881 20.822 10.423 18.095 10.494 20.735 11.744 22.5 10.656 1.1-.678 12.469-7.256 25.265-14.618L226.03 195.6l-.265-28.915-.265-28.915-23.733-13.635-23.734-13.635-.016-27.558L178 55.384l-24.588-14.192c-13.524-7.806-25.111-14.154-25.75-14.107-.639.046-12.074 6.432-25.412 14.19" fill="#2b957a" fill-rule="evenodd"/><path fill-opacity=".505" d="M103 41.299 78.5 55.511 78 83.297l-.5 27.786-23 13.256-23 13.255-.265 29.103-.265 29.103 24.641 14.203c20.928 12.063 24.961 14.051 26.765 13.194 1.168-.555 9.537-5.301 18.598-10.546 9.061-5.245 16.607-9.403 16.769-9.241.162.162-.388 5.165-1.224 11.116-.835 5.952-1.519 10.969-1.519 11.148 0 .179 5.625.326 12.5.326s12.5-.247 12.5-.55c0-.302-.619-1.764-1.375-3.25-1.403-2.753-5.994-21.164-5.421-21.737.173-.173 8.86 4.647 19.305 10.712 10.445 6.065 19.947 11.478 21.115 12.029 1.801.85 5.877-1.161 26.765-13.201L225.03 195.8l-.265-29.103-.265-29.103-23-13.255-23-13.256-.5-27.786-.5-27.786L153 41.299c-13.475-7.816-24.725-14.212-25-14.212-.275 0-11.525 6.396-25 14.212" fill="#2b957a" fill-rule="evenodd"/><path fill-opacity=".953" d="M102.688 41.891 78.876 55.718l.091 26.96c.083 24.656-.061 27.094-1.688 28.526-.979.861-11.792 7.295-24.029 14.297L31 138.232l.022 28.634.021 28.634 24.158 13.917c13.287 7.654 24.658 13.916 25.27 13.916.612 0 9.124-4.607 18.915-10.239 9.791-5.632 18.05-9.992 18.353-9.688.536.536-1.379 17.345-2.376 20.844-.455 1.6.579 1.75 12.095 1.75h12.593l-1.458-2.821c-2.822-5.457-6.692-23.179-5.061-23.179.292 0 7.38 3.973 15.75 8.828 8.37 4.855 17.715 10.237 20.767 11.958l5.549 3.131 24.681-14.209L224.96 195.5l.02-28.634.02-28.634-22.25-12.731c-12.238-7.002-23.05-13.436-24.029-14.297-1.627-1.432-1.771-3.87-1.688-28.526l.091-26.96-23.812-13.827C140.215 34.285 128.825 28.063 128 28.063c-.825 0-12.215 6.222-25.312 13.828m2.062 3.849L83 58.389v52.169l22.008 12.721C117.112 130.276 127.459 136 128 136c.541 0 10.888-5.724 22.992-12.721L173 110.558V58.301l-21.973-12.65c-12.085-6.958-22.547-12.63-23.25-12.605-.702.025-11.064 5.738-23.027 12.694M57.5 127.936l-22 12.827-.266 25.916-.266 25.916 22.243 12.869c12.233 7.078 22.703 12.868 23.266 12.866.563-.001 11.043-5.773 23.289-12.826l22.267-12.824-.267-25.962-.266-25.962-21.5-12.495c-11.825-6.872-22.175-12.643-23-12.824-.825-.181-11.4 5.443-23.5 12.499m95 .005-22 12.819-.266 25.96-.267 25.96 22.267 12.824c12.246 7.053 22.726 12.825 23.289 12.826.563.002 11.033-5.788 23.266-12.866l22.243-12.869-.266-25.915-.266-25.914-22.317-12.883c-12.275-7.086-22.625-12.856-23-12.822-.376.033-10.583 5.829-22.683 12.88" fill="#2b957a" fill-rule="evenodd"/></svg>