<?xml version="1.0" encoding="UTF-8" standalone="no"?>
<svg
   xmlns:dc="http://purl.org/dc/elements/1.1/"
   xmlns:cc="http://creativecommons.org/ns#"
   xmlns:rdf="http://www.w3.org/1999/02/22-rdf-syntax-ns#"
   xmlns:svg="http://www.w3.org/2000/svg"
   xmlns="http://www.w3.org/2000/svg"
   xmlns:sodipodi="http://sodipodi.sourceforge.net/DTD/sodipodi-0.dtd"
   xmlns:inkscape="http://www.inkscape.org/namespaces/inkscape"
   inkscape:version="1.0 (4035a4f, 2020-05-01)"
   sodipodi:docname="btree_logo_vec.svg"
   viewBox="0 0 1122.52 793.70667"
   height="793.70667"
   width="1122.52"
   xml:space="preserve"
   id="svg164"
   version="1.1"><metadata
     id="metadata170"><rdf:RDF><cc:Work
         rdf:about=""><dc:format>image/svg+xml</dc:format><dc:type
           rdf:resource="http://purl.org/dc/dcmitype/StillImage" /><dc:title></dc:title></cc:Work></rdf:RDF></metadata><defs
     id="defs168"><clipPath
       id="clipPath180"
       clipPathUnits="userSpaceOnUse"><path
         id="path178"
         d="M 0,595.28 H 841.89 V 0 H 0 Z" /></clipPath></defs><sodipodi:namedview
     inkscape:current-layer="g172"
     inkscape:window-maximized="0"
     inkscape:window-y="23"
     inkscape:window-x="0"
     inkscape:cy="396.85333"
     inkscape:cx="561.26001"
     inkscape:zoom="0.89075729"
     showgrid="false"
     id="namedview166"
     inkscape:window-height="719"
     inkscape:window-width="1017"
     inkscape:pageshadow="2"
     inkscape:pageopacity="0"
     guidetolerance="10"
     gridtolerance="10"
     objecttolerance="10"
     borderopacity="1"
     bordercolor="#666666"
     pagecolor="#ffffff" /><g
     transform="matrix(1.3333333,0,0,-1.3333333,0,793.70667)"
     inkscape:label="btree_logo_vec"
     inkscape:groupmode="layer"
     id="g172"><g
       id="g174"><g
         clip-path="url(#clipPath180)"
         id="g176"><g
           transform="translate(371.209,222.2354)"
           id="g182"><path
             id="path184"
             style="fill:#110f0d;fill-opacity:1;fill-rule:nonzero;stroke:none"
             d="m 0,0 h 21.647 c 0,0 12.108,-93.248 24.13,-97.673 H -9.154 c 0,0 12.113,72.925 9.154,97.673" /></g><g
           transform="translate(290.7183,476.9365)"
           id="g186"><path
             id="path188"
             style="fill:#226932;fill-opacity:1;fill-rule:nonzero;stroke:none"
             d="M 0,0 98.802,57.048 197.611,0 V -114.089 L 98.802,-171.132 0,-114.089 Z" /></g><g
           transform="translate(290.7183,476.9365)"
           id="g190"><path
             id="path192"
             style="fill:none;stroke:#110f0d;stroke-width:9.64;stroke-linecap:butt;stroke-linejoin:miter;stroke-miterlimit:10;stroke-dasharray:none;stroke-opacity:1"
             d="M 0,0 98.802,57.048 197.611,0 V -114.089 L 98.802,-171.132 0,-114.089 Z" /></g><g
           transform="translate(191.9097,305.4785)"
           id="g194"><path
             id="path196"
             style="fill:#226932;fill-opacity:1;fill-rule:nonzero;stroke:none"
             d="M 0,0 98.809,57.045 197.611,0 V -114.089 L 98.809,-171.132 0,-114.089 Z" /></g><g
           transform="translate(191.9097,305.4785)"
           id="g198"><path
             id="path200"
             style="fill:none;stroke:#110f0d;stroke-width:9.64;stroke-linecap:butt;stroke-linejoin:miter;stroke-miterlimit:10;stroke-dasharray:none;stroke-opacity:1"
             d="M 0,0 98.809,57.045 197.611,0 V -114.089 L 98.809,-171.132 0,-114.089 Z" /></g><g
           transform="translate(389.5205,305.4785)"
           id="g202"><path
             id="path204"
             style="fill:#226932;fill-opacity:1;fill-rule:nonzero;stroke:none"
             d="M 0,0 98.809,57.045 197.611,0 V -114.089 L 98.809,-171.138 0,-114.089 Z" /></g><g
           transform="translate(389.5205,305.4785)"
           id="g206"><path
             id="path208"
             style="fill:none;stroke:#110f0d;stroke-width:9.64;stroke-linecap:butt;stroke-linejoin:miter;stroke-miterlimit:10;stroke-dasharray:none;stroke-opacity:1"
             d="M 0,0 98.809,57.045 197.611,0 V -114.089 L 98.809,-171.138 0,-114.089 Z" /></g></g></g></g></svg>
